{
  "accessors": [
    {
      "bufferView": 2,
      "componentType": 5126,
      "count": 24,
      "max": [
        -1.2918479442596436,
        0.6695892214775085,
        0.20356015861034393
      ],
      "min": [
        -2.0600361824035645,
        0.4248308837413788,
        -0.20356015861034393
      ],
      "type": "VEC3"
    },
    {
      "bufferView": 2,
      "byteOffset": 288,
      "componentType": 5126,
      "count": 24,
      "max": [
        -0.05919002369046211,
        0.8842387795448303,
        0.8884600400924683
      ],
      "min": [
        -0.333929181098938,
        0.44948610663414,
        -0.8884600400924683
      ],
      "type": "VEC3"
    },
    {
      "bufferView": 1,
      "componentType": 5126,
      "count": 24,
      "max": [
        1.0,
        1.0
      ],
      "min": [
        0.0,
        0.0
      ],
      "type": "VEC2"
    },
    {
      "bufferView": 0,
      "componentType": 5125,
      "count": 36,
      "type": "SCALAR"
    },
    {
      "bufferView": 2,
      "byteOffset": 576,
      "componentType": 5126,
      "count": 48,
      "max": [
        0.8559942841529846,
        0.45428502559661865,
        2.2142415046691895
      ],
      "min": [
        -1.3006207942962646,
        0.24052459001541138,
        -2.2142415046691895
      ],
      "type": "VEC3"
    },
    {
      "bufferView": 2,
      "byteOffset": 1152,
      "componentType": 5126,
      "count": 48,
      "max": [
        -0.005869599524885416,
        0.8947563171386719,
        0.8835698962211609
      ],
      "min": [
        -0.9101805686950684,
        -0.5088164806365967,
        -0.8835698962211609
      ],
      "type": "VEC3"
    },
    {
      "bufferView": 1,
      "byteOffset": 192,
      "componentType": 5126,
      "count": 48,
      "max": [
        1.0,
        1.0
      ],
      "min": [
        1.0,
        1.0
      ],
      "type": "VEC2"
    },
    {
      "bufferView": 0,
      "byteOffset": 144,
      "componentType": 5125,
      "count": 72,
      "type": "SCALAR"
    },
    {
      "bufferView": 2,
      "byteOffset": 1728,
      "componentType": 5126,
      "count": 8,
      "max": [
        2.099973201751709,
        0.36382609605789185,
        1.0900555849075317
      ],
      "min": [
        1.9115160703659058,
        0.3174417018890381,
        -1.0900555849075317
      ],
      "type": "VEC3"
    },
    {
      "bufferView": 2,
      "byteOffset": 1824,
      "componentType": 5126,
      "count": 8,
      "max": [
        0.5896069407463074,
        0.7964026927947998,
        0.13456061482429504
      ],
      "min": [
        0.5896069407463074,
        0.7964026927947998,
        -0.13456061482429504
      ],
      "type": "VEC3"
    },
    {
      "bufferView": 1,
      "byteOffset": 576,
      "componentType": 5126,
      "count": 8,
      "max": [
        1.0,
        0.5
      ],
      "min": [
        1.0,
        0.375
      ],
      "type": "VEC2"
    },
    {
      "bufferView": 0,
      "byteOffset": 432,
      "componentType": 5125,
      "count": 12,
      "type": "SCALAR"
    },
    {
      "bufferView": 2,
      "byteOffset": 1920,
      "componentType": 5126,
      "count": 506,
      "max": [
        2.099973201751709,
        1.1656746864318848,
        2.2142415046691895
      ],
      "min": [
        -2.548200845718384,
        0.001174813136458397,
        -2.2142415046691895
      ],
      "type": "VEC3"
    },
    {
      "bufferView": 2,
      "byteOffset": 7992,
      "componentType": 5126,
      "count": 506,
      "max": [
        0.9816029667854309,
        0.9994021654129028,
        0.9858562350273132
      ],
      "min": [
        -0.9880639910697937,
        -0.9988468885421753,
        -0.9858562350273132
      ],
      "type": "VEC3"
    },
    {
      "bufferView": 1,
      "byteOffset": 640,
      "componentType": 5126,
      "count": 506,
      "max": [
        1.0,
        1.0
      ],
      "min": [
        0.0,
        0.0
      ],
      "type": "VEC2"
    },
    {
      "bufferView": 0,
      "byteOffset": 480,
      "componentType": 5125,
      "count": 786,
      "type": "SCALAR"
    },
    {
      "bufferView": 2,
      "byteOffset": 14064,
      "componentType": 5126,
      "count": 32,
      "max": [
        0.5472537875175476,
        -0.48772740364074707,
        0.5472536087036133
      ],
      "min": [
        -0.5472535490989685,
        -0.48772740364074707,
        -0.5472538471221924
      ],
      "type": "VEC3"
    },
    {
      "bufferView": 2,
      "byteOffset": 14448,
      "componentType": 5126,
      "count": 32,
      "max": [
        -5.5789836750363975e-08,
        1.0,
        -0.0
      ],
      "min": [
        -5.5789836750363975e-08,
        1.0,
        -0.0
      ],
      "type": "VEC3"
    },
    {
      "bufferView": 1,
      "byteOffset": 4688,
      "componentType": 5126,
      "count": 32,
      "max": [
        0.49000000953674316,
        0.9900000095367432
      ],
      "min": [
        0.01000000536441803,
        0.5099999904632568
      ],
      "type": "VEC2"
    },
    {
      "bufferView": 0,
      "byteOffset": 3624,
      "componentType": 5125,
      "count": 90,
      "type": "SCALAR"
    },
    {
      "bufferView": 2,
      "byteOffset": 14832,
      "componentType": 5126,
      "count": 416,
      "max": [
        1.1250689029693604,
        1.125258445739746,
        1.12506902217865
      ],
      "min": [
        -1.1250691413879395,
        -1.000000238418579,
        -1.12506902217865
      ],
      "type": "VEC3"
    },
    {
      "bufferView": 2,
      "byteOffset": 19824,
      "componentType": 5126,
      "count": 416,
      "max": [
        0.9951848387718201,
        0.7461028695106506,
        0.9951848387718201
      ],
      "min": [
        -0.9951847791671753,
        -1.0,
        -0.9951847195625305
      ],
      "type": "VEC3"
    },
    {
      "bufferView": 1,
      "byteOffset": 4944,
      "componentType": 5126,
      "count": 416,
      "max": [
        1.0,
        0.9900000095367432
      ],
      "min": [
        0.0,
        0.0
      ],
      "type": "VEC2"
    },
    {
      "bufferView": 0,
      "byteOffset": 3984,
      "componentType": 5125,
      "count": 666,
      "type": "SCALAR"
    },
    {
      "bufferView": 2,
      "byteOffset": 24816,
      "componentType": 5126,
      "count": 128,
      "max": [
        1.0,
        1.0,
        1.0
      ],
      "min": [
        -1.0,
        -1.0,
        -1.0
      ],
      "type": "VEC3"
    },
    {
      "bufferView": 2,
      "byteOffset": 26352,
      "componentType": 5126,
      "count": 128,
      "max": [
        0.8909767270088196,
        0.44548842310905457,
        0.8909767866134644
      ],
      "min": [
        -0.8909767866134644,
        -1.0,
        -0.8909767866134644
      ],
      "type": "VEC3"
    },
    {
      "bufferView": 1,
      "byteOffset": 8272,
      "componentType": 5126,
      "count": 128,
      "max": [
        0.9900000095367432,
        0.9900000095367432
      ],
      "min": [
        0.01000000536441803,
        0.5099999904632568
      ],
      "type": "VEC2"
    },
    {
      "bufferView": 0,
      "byteOffset": 6648,
      "componentType": 5125,
      "count": 186,
      "type": "SCALAR"
    }
  ],
  "asset": {
    "extras": {
      "author": "MrEliptik (https://sketchfab.com/mreliptik)",
      "license": "CC-BY-4.0 (http://creativecommons.org/licenses/by/4.0/)",
      "source": "https://sketchfab.com/3d-models/f35-8ca72ea7475241d2a47f568ce7d1b18f",
      "title": "F35"
    },
    "generator": "Sketchfab-12.68.0",
    "version": "2.0"
  },
  "bufferViews": [
    {
      "buffer": 0,
      "byteLength": 7392,
      "name": "floatBufferViews",
      "target": 34963
    },
    {
      "buffer": 0,
      "byteLength": 9296,
      "byteOffset": 7392,
      "byteStride": 8,
      "name": "floatBufferViews",
      "target": 34962
    },
    {
      "buffer": 0,
      "byteLength": 27888,
      "byteOffset": 16688,
      "byteStride": 12,
      "name": "floatBufferViews",
      "target": 34962
    }
  ],
  "buffers": [
    {
      "byteLength": 44576,
      "uri": "scene.bin"
    }
  ],
  "materials": [
    {
      "doubleSided": true,
      "name": "Glass",
      "pbrMetallicRoughness": {
        "baseColorFactor": [
          0.000937731,
          0.000937731,
          0.000937731,
          1.0
        ],
        "metallicFactor": 0.663636,
        "roughnessFactor": 0.112664
      }
    },
    {
      "doubleSided": true,
      "name": "ULTRA_DARK",
      "pbrMetallicRoughness": {
        "baseColorFactor": [
          0.0,
          0.0,
          0.0,
          1.0
        ],
        "metallicFactor": 0.0
      }
    },
    {
      "doubleSided": true,
      "name": "White",
      "pbrMetallicRoughness": {
        "baseColorFactor": [
          0.945723,
          0.945723,
          0.945723,
          1.0
        ],
        "metallicFactor": 0.254335,
        "roughnessFactor": 0.84104
      }
    },
    {
      "doubleSided": true,
      "name": "Dark_Grey_metalic",
      "pbrMetallicRoughness": {
        "baseColorFactor": [
          0.0142836,
          0.0142836,
          0.0142836,
          1.0
        ],
        "metallicFactor": 0.53527,
        "roughnessFactor": 0.4
      }
    },
    {
      "doubleSided": true,
      "emissiveFactor": [
        0.216851,
        0.0561628,
        0.00706596
      ],
      "name": "Red_exhaust",
      "pbrMetallicRoughness": {
        "baseColorFactor": [
          0.8,
          0.0896034,
          0.0141411,
          1.0
        ],
        "metallicFactor": 0.0,
        "roughnessFactor": 0.5
      }
    },
    {
      "doubleSided": true,
      "name": "Black",
      "pbrMetallicRoughness": {
        "baseColorFactor": [
          0.0,
          0.0,
          0.0,
          1.0
        ],
        "metallicFactor": 0.0
      }
    },
    {
      "doubleSided": true,
      "emissiveFactor": [
        1.0,
        0.315665,
        0.0527048
      ],
      "name": "Afterburner"
    }
  ],
  "meshes": [
    {
      "name": "Object_0",
      "primitives": [
        {
          "attributes": {
            "NORMAL": 1,
            "POSITION": 0,
            "TEXCOORD_0": 2
          },
          "indices": 3,
          "material": 0,
          "mode": 4
        }
      ]
    },
    {
      "name": "Object_1",
      "primitives": [
        {
          "attributes": {
            "NORMAL": 5,
            "POSITION": 4,
            "TEXCOORD_0": 6
          },
          "indices": 7,
          "material": 1,
          "mode": 4
        }
      ]
    },
    {
      "name": "Object_2",
      "primitives": [
        {
          "attributes": {
            "NORMAL": 9,
            "POSITION": 8,
            "TEXCOORD_0": 10
          },
          "indices": 11,
          "material": 2,
          "mode": 4
        }
      ]
    },
    {
      "name": "Object_3",
      "primitives": [
        {
          "attributes": {
            "NORMAL": 13,
            "POSITION": 12,
            "TEXCOORD_0": 14
          },
          "indices": 15,
          "material": 3,
          "mode": 4
        }
      ]
    },
    {
      "name": "Object_4",
      "primitives": [
        {
          "attributes": {
            "NORMAL": 17,
            "POSITION": 16,
            "TEXCOORD_0": 18
          },
          "indices": 19,
          "material": 4,
          "mode": 4
        }
      ]
    },
    {
      "name": "Object_5",
      "primitives": [
        {
          "attributes": {
            "NORMAL": 21,
            "POSITION": 20,
            "TEXCOORD_0": 22
          },
          "indices": 23,
          "material": 5,
          "mode": 4
        }
      ]
    },
    {
      "name": "Object_6",
      "primitives": [
        {
          "attributes": {
            "NORMAL": 25,
            "POSITION": 24,
            "TEXCOORD_0": 26
          },
          "indices": 27,
          "material": 6,
          "mode": 4
        }
      ]
    }
  ],
  "nodes": [
    {
      "children": [
        1
      ],
      "matrix": [
        1.0,
        0.0,
        0.0,
        0.0,
        0.0,
        2.220446049250313e-16,
        -1.0,
        0.0,
        0.0,
        1.0,
        2.220446049250313e-16,
        0.0,
        0.0,
        0.0,
        0.0,
        1.0
      ],
      "name": "Sketchfab_model"
    },
    {
      "children": [
        2
      ],
      "name": "root"
    },
    {
      "children": [
        3,
        8,
        11
      ],
      "matrix": [
        1.0,
        0.0,
        0.0,
        0.0,
        0.0,
        2.220446049250313e-16,
        1.0,
        0.0,
        0.0,
        -1.0,
        2.220446049250313e-16,
        0.0,
        0.0,
        0.0,
        0.0,
        1.0
      ],
      "name": "GLTF_SceneRootNode"
    },
    {
      "children": [
        4,
        5,
        6,
        7
      ],
      "matrix": [
        0.9420933420933147,
        -0.24210236508902921,
        0.23204865783224665,
        0.0,
        0.13666657236560276,
        0.9090661004587716,
        0.3936001435397607,
        0.0,
        -0.3062390941426097,
        -0.3390947799878098,
        0.8895124211632645,
        0.0,
        -0.018901875242590904,
        -0.7086135745048523,
        -0.26539719104766846,
        1.0
      ],
      "name": "Plane_0"
    },
    {
      "mesh": 0,
      "name": "Object_4"
    },
    {
      "mesh": 1,
      "name": "Object_5"
    },
    {
      "mesh": 2,
      "name": "Object_6"
    },
    {
      "mesh": 3,
      "name": "Object_7"
    },
    {
      "children": [
        9,
        10
      ],
      "matrix": [
        -0.016297686515017062,
        -0.10840754566507455,
        -0.046937420617346994,
        0.0,
        0.07935153872322269,
        -0.020392019920921677,
        0.019545222471088534,
        0.0,
        -0.03651948912570859,
        -0.04043757437716945,
        0.10607573468783936,
        0.0,
        1.4755178689956665,
        -0.8266257047653198,
        0.20354747772216797,
        1.0
      ],
      "name": "Afterburner_1"
    },
    {
      "mesh": 4,
      "name": "Object_9"
    },
    {
      "mesh": 5,
      "name": "Object_10"
    },
    {
      "children": [
        12
      ],
      "matrix": [
        -0.01998159984002019,
        -0.0019789334262868548,
        0.0790831655288086,
        0.0,
        0.5203291132361562,
        -0.21110317884991134,
        0.12618676708307358,
        0.0,
        0.032611582360905236,
        0.08660205885151699,
        0.010406908884194696,
        0.0,
        1.6801289319992065,
        -0.8972077965736389,
        0.259762167930603,
        1.0
      ],
      "name": "Exhaust_2"
    },
    {
      "mesh": 6,
      "name": "Object_12"
    }
  ],
  "scene": 0,
  "scenes": [
    {
      "name": "Sketchfab_Scene",
      "nodes": [
        0
      ]
    }
  ]
}
